***************************************************************

[IMG]http://www.hotimg.org/images/67363952943939111394.png[/IMG]

***************************************************************

[IMG]http://www.hotimg.org/images/98705572104871330300.png[/IMG]

***************************************************************

FILM TITLE: The Man from Nowhere (2010)  Ajeossi (original title)

***************************************************************

Genre: Action | Crime | Thriller    

Rated R for strong bloody violence, pervasive language, drug content and brief nudity

Release:  5 August 2010 (South Korea)

Director: Jeong-beom Lee

Writer: Jeong-beom Lee

Stars:  Bin Won, Thanayong Wongtrakul and Sae-ron Kim

Country: South Korea 

Language: Korean 

Plot:
A quiet pawnshop keeper with a violent past takes on a drug- and 
organ trafficking ring in hope of saving the child who is his only friend.

IMDB Rating: 7.9/10 from 10,324 users
 
http://www.imdb.com/title/tt1527788/

****************************************************************

[URL=http://www.hotimg.org/viewer.php?file=91649239032616032748.png][IMG]http://www.hotimg.org/images/91649239032616032748_thumb.png[/IMG][/URL]
[URL=http://www.hotimg.org/viewer.php?file=47694066128379461887.png][IMG]http://www.hotimg.org/images/47694066128379461887_thumb.png[/IMG][/URL]
[URL=http://www.hotimg.org/viewer.php?file=67848922208375864686.png][IMG]http://www.hotimg.org/images/67848922208375864686_thumb.png[/IMG][/URL]
[URL=http://www.hotimg.org/viewer.php?file=30445309236808144871.png][IMG]http://www.hotimg.org/images/30445309236808144871_thumb.png[/IMG][/URL]
[URL=http://www.hotimg.org/viewer.php?file=61013138902559920259.png][IMG]http://www.hotimg.org/images/61013138902559920259_thumb.png[/IMG][/URL]

****************************************************************

General
Unique ID                        : 245971902924746635372138095524155571526 (0xB90C7720009DC80691A7FCEC448D3D46)
Complete name                    : The Man From Nowhere 2010 720p BDRip x264 ac3 sub (mkv) [GREYSHADOW].mkv
Format                           : Matroska
Format version                   : Version 2
File size                        : 3.87 GiB
Duration                         : 1h 59mn
Overall bit rate                 : 4641 Kbps
Encoded date                     : UTC 2012-02-23 19:04:53
Writing application              : mkvmerge v5.3.0 ('I could have danced') built on Feb  9 2012 10:38:07
Writing library                  : libebml v1.2.3 + libmatroska v1.3.0

Video
ID                               : 1
Format                           : AVC
Format/Info                      : Advanced Video Codec
Format profile                   : High@L4.1
Format settings, CABAC           : Yes
Format settings, ReFrames        : 12 frames
Muxing mode                      : Header stripping
Codec ID                         : V_MPEG4/ISO/AVC
Duration                         : 1h 59mn
Bit rate                         : 4000 Kbps
Width                            : 1280 pixels
Height                           : 544 pixels
Display aspect ratio             : 2.35:1
Frame rate                       : 23.976 fps
Color space                      : YUV
Chroma subsampling               : 4:2:0
Bit depth                        : 8 bits
Scan type                        : Progressive
Bits/(Pixel*Frame)               : 0.240
Stream size                      : 3.26 GiB (84%)
Title                            : AVC MPEG4 Video
Writing library                  : x264 core 120 r2164 da19765
Language                         : Korean
Color primaries                  : BT.709-5, BT.1361, IEC 61966-2-4, SMPTE RP177
Transfer characteristics         : BT.709-5, BT.1361
Matrix coefficients              : BT.709-5, BT.1361, IEC 61966-2-4 709, SMPTE RP177

Audio
ID                               : 2
Format                           : AC-3
Format/Info                      : Audio Coding 3
Mode extension                   : CM (complete main)
Muxing mode                      : Header stripping
Codec ID                         : A_AC3
Duration                         : 1h 59mn
Bit rate mode                    : Constant
Bit rate                         : 640 Kbps
Channel(s)                       : 6 channels
Channel positions                : Front: L C R, Side: L R, LFE
Sampling rate                    : 48.0 KHz
Bit depth                        : 16 bits
Compression mode                 : Lossy
Stream size                      : 546 MiB (14%)
Title                            : AC3 5.1 640 kbps Audio
Language                         : Korean

Text
ID                               : 3
Format                           : UTF-8
Codec ID                         : S_TEXT/UTF8
Codec ID/Info                    : UTF-8 Plain Text
Title                            : English sup to srt Subtitle edited by greyshadow
Language                         : English

****************************************************************

Video Source: The Man from Nowhere 2010 Bluray 1080p AVC DTS-HD MA5.1-Catherine (39.68 GB)

Thanks: kamui0810 (chdbits.org) 

****************************************************************

I provide a small sample, so please download this to check your 
compatibility first if you are unsure.

****************************************************************

I am providing tutorials here :- 
http://tutorials4all.freeforums.org/index.php?sid=fb109f91dedb2901c4d0b39625c431f7
This is for opening my mkv encodes, remuxing to Bluray for PS3 or mkv or mp4 with 
additional or selected audio or subtitles which I will now start supplying, so if your
fed up finding the right encode to match your player - DO IT YOURSELF - it's simples.

I allow transfer of my encodes to any site, just give me credit (Thanks: GREYSHADOW)

****************************************************************